# AST/ASF file generated using VICON BodyLanguage
# -----------------------------------------------
:version 1.10
:name VICON
:units
  mass 1.0
  length 0.45
  angle deg
:documentation
   .ast/.asf automatically generated from VICON data using
   VICON BodyBuilder and BodyLanguage model FoxedUp or BRILLIANT.MOD
:root
   order TX TY TZ RX RY RZ
   axis XYZ
   position 0 0 0  
   orientation 0 0 0 
:bonedata
  begin
     id 1 
     name lhipjoint
     direction 0.646657 -0.683706 0.338203 
     length 2.4948 
     axis 0 0 0  XYZ
  end
  begin
     id 2 
     name lfemur
     direction 0.34202 -0.939693 0  
     length 6.79491  
     axis 0 0 20  XYZ
    dof rx ry rz
    limits (-160.0 20.0)
           (-70.0 70.0)
           (-60.0 70.0)
  end
  begin
     id 3 
     name ltibia
     direction 0.34202 -0.939693 0   
     length 7.56807   
     axis 0 0 20   XYZ
    dof rx
    limits (-10.0 170.0)
  end
  begin
     id 4 
     name lfoot
     direction 0.0679796 -0.186772 0.980048   
     length 2.53018   
     axis -90 7.62852e-016 20   XYZ
    dof rx rz
    limits (-45.0 90.0)
           (-70.0 20.0)
  end
  begin
     id 5 
     name ltoes
     direction 1.53625e-011 -4.21881e-011 1   
     length 1.26912   
     axis -90 7.62852e-016 20   XYZ
    dof rx
    limits (-90.0 20.0)
  end
  begin
     id 6 
     name rhipjoint
     direction -0.618868 -0.704065 0.348274   
     length 2.42265  
     axis 0 0 0  XYZ 
  end
  begin
     id 7 
     name rfemur
     direction -0.34202 -0.939693 0   
     length 6.73814   
     axis 0 0 -20   XYZ
    dof rx ry rz
    limits (-160.0 20.0)
           (-70.0 70.0)
           (-70.0 60.0)
  end
  begin
     id 8 
     name rtibia
     direction -0.34202 -0.939693 0   
     length 7.66799   
     axis 0 0 -20   XYZ
    dof rx
    limits (-10.0 170.0)
 end
 begin
     id 9 
     name rfoot
     direction -0.0727352 -0.199838 0.977125   
     length 2.57224  
     axis -90 -7.62852e-016 -20   XYZ
    dof rx rz
    limits (-45.0 90.0)
           (-20.0 70.0)
  end
  begin
     id 10 
     name rtoes
     direction -1.53501e-011 -4.21858e-011 1   
     length 1.28858   
     axis -90 -7.62852e-016 -20   XYZ
    dof rx
    limits (-90.0 20.0)
  end
  begin
     id 11 
     name lowerback
     direction -0.0172471 0.995767 -0.0902851   
     length 2.20206   
     axis 0 0 0   XYZ
    dof rx ry rz
    limits (-20.0 45.0)
           (-30.0 30.0)
           (-30.0 30.0)
  end
  begin
     id 12 
     name upperback
     direction -0.000110737 0.999714 0.0239043   
     length 2.19523   
     axis 0 0 0   XYZ
    dof rx ry rz
    limits (-20.0 45.0)
           (-30.0 30.0)
           (-30.0 30.0)
  end
  begin
     id 13 
     name thorax
     direction 0.00704869 0.997783 0.0661741   
     length 2.21977   
     axis 0 0 0   XYZ
    dof rx ry rz
    limits (-20.0 45.0)
           (-30.0 30.0)
           (-30.0 30.0)
  end
  begin
     id 14 
     name lowerneck
     direction -0.00407501 0.995527 0.0943846   
     length 1.83142   
     axis 0 0 0   XYZ
    dof rx ry rz
    limits (-20.0 45.0)
           (-30.0 30.0)
           (-30.0 30.0)
  end
  begin
     id 15 
     name upperneck
     direction 0.0640586 0.986486 -0.150807   
     length 1.84616   
     axis 0 0 0   XYZ
    dof rx ry rz
    limits (-20.0 45.0)
           (-30.0 30.0)
           (-30.0 30.0)
  end
  begin
     id 16
     name head
     direction 0.0188017 0.99791 -0.0618239  
     length 1.85932  
     axis 0 0 0   XYZ
    dof rx ry rz
    limits (-20.0 45.0)
           (-30.0 30.0)
           (-30.0 30.0)
  end
  begin
     id 17 
     name lclavicle
     direction 0.976074 0.206905 0.066852  
     length 3.81043  
     axis 0 0 0   XYZ
    dof ry rz
    limits (-20.0 10.0)
           (0.0 20.0)
  end
  begin
     id 18 
     name lhumerus
     direction 1 -4.48971e-011 1.86916e-027   
     length 5.37587   
     axis 180 -30 -90   XYZ
    dof rx ry rz
    limits (-60.0 90.0)
           (-90.0 90.0)
           (-90.0 90.0)
  end
  begin
     id 19
     name lradius
     direction 1 -4.48968e-011 1.69187e-027   
     length 3.35977   
     axis 180 -30 -90   XYZ
    dof rx
    limits (-10.0 170.0)
  end
  begin
     id 20
     name lwrist
     direction 1 -4.48968e-011 5.8978e-027   
     length 1.67988   
     axis -3.27506e-015 90 90   XYZ
    dof ry
    limits (-180.0 0.0)
 end
  begin
     id 21 
     name lhand
     direction 1 -4.49028e-011 1.18071e-026   
     length 0.561859   
     axis -7.52654e-015 90 90   XYZ
    dof rx rz
    limits (-90.0 90.0)
           (-45.0 45.0)
  end
  begin
     id 22 
     name lfingers
     direction 1 -4.48927e-011 2.35758e-026   
     length 0.452985   
     axis -1.50534e-014 90 90   XYZ
    dof rx
    limits (0.0 90.0)
  end
  begin
     id 23
     name lthumb
     direction 0.707107 -6.34898e-011 0.707107   
     length 0.650399   
     axis -90 45 5.69224e-014   XYZ
    dof rx rz
    limits (-45.0 45.0)
           (-45.0 45.0)
  end
  begin
     id 24 
     name rclavicle
     direction -0.988403 0.151789 0.00439714   
     length 3.6942  
     axis 0 0 0   XYZ 
    dof ry rz
    limits (-10.0 20.0)
           (-20.0 0.0)
  end
  begin
     id 25 
     name rhumerus
     direction -1 -4.48978e-011 1.62495e-027  
     length 5.22819   
     axis 180 30 90   XYZ
    dof rx ry rz
    limits (-90.0 60.0)
           (-90.0 90.0)
           (-90.0 90.0)
  end
  begin
     id 26 
     name rradius
     direction -1 -4.48961e-011 3.47796e-027   
     length 3.40764   
     axis 180 30 90   XYZ
    dof rx
    limits (-10.0 170.0)
  end
  begin
     id 27 
     name rwrist
     direction -1 -4.48949e-011 5.89602e-027   
     length 1.70382   
     axis -3.27506e-015 -90 -90   XYZ
    dof ry
    limits (-180.0 0.0)
  end
  begin
     id 28
     name rhand
     direction -1 -4.48977e-011 1.17973e-026   
     length 0.583255   
     axis -7.52654e-015 -90 -90   XYZ
    dof rx rz
    limits (-90.0 90.0)
           (-45.0 45.0)
  end
  begin
     id 29
     name rfingers
     direction -1 -4.49099e-011 2.36408e-026   
     length 0.470235   
     axis -1.50534e-014 -90 -90   XYZ
    dof rx
    limits (0.0 90.0)
  end
  begin
     id 30
     name rthumb
     direction -0.707107 -6.35011e-011 0.707107   
     length 0.675167   
     axis -90 -45 -5.69224e-014   XYZ
    dof rx rz
    limits (-45.0 45.0)
           (-45.0 45.0)
  end
:hierarchy
  begin
    root lhipjoint rhipjoint lowerback
    lhipjoint lfemur
    lfemur ltibia
    ltibia lfoot
    lfoot ltoes
    rhipjoint rfemur
    rfemur rtibia
    rtibia rfoot
    rfoot rtoes
    lowerback upperback
    upperback thorax
    thorax lowerneck lclavicle rclavicle
    lowerneck upperneck
    upperneck head
    lclavicle lhumerus
    lhumerus lradius
    lradius lwrist
    lwrist lhand lthumb
    lhand lfingers
    rclavicle rhumerus
    rhumerus rradius
    rradius rwrist
    rwrist rhand rthumb
    rhand rfingers
  end

#!OML:ASF G:\JayActor3\Patient Classification 1\Patient 1\Session 2\male.ASF
:FULLY-SPECIFIED
:DEGREES
1128
root -37.1251 16.5866 -4.78468 1079.85 -178.586 -1079.58
lowerback 0.323931 0.775154 0.252667
upperback -0.655224 1.03273 0.612546
thorax -0.858691 0.513551 0.47415
lowerneck -9.46707 -1.80069 -4.85361
upperneck 33.0827 -9.73951 10.907
head 13.5261 -5.0746 3.42058
rclavicle 9.31803e-016 1.39149e-015
rhumerus -45.8957 41.8157 -101.136
rradius 119.443
rwrist -28.8253
rhand -7.24113 16.9795
rfingers 7.12502
rthumb 18.6389 -12.1475
lclavicle 9.31803e-016 1.39149e-015
lhumerus -58.5779 -26.1503 100.954
lradius 99.8792
lwrist 24.3618
lhand -5.52749 9.15985
lfingers 7.12502
lthumb 20.2865 38.1204
rfemur -11.482 7.66051 28.5608
rtibia 35.9088
rfoot -20.2717 0.867462
rtoes 21.9181
lfemur -14.2123 -15.0765 -10.9655
ltibia 38.2113
lfoot -17.1964 -13.1377
ltoes -20.877
1129
root -37.1749 16.5969 -4.7908 1079.98 -180.836 -1079.58
lowerback 0.337526 0.797092 0.102479
upperback -0.65915 1.07585 0.613152
thorax -0.873416 0.542521 0.558062
lowerneck -9.24238 -2.06042 -5.06118
upperneck 32.8687 -10.1129 10.7539
head 13.4235 -5.32327 3.33147
rclavicle 1.24831e-014 6.85807e-015
rhumerus -45.8592 41.8433 -100.846
rradius 119.407
rwrist -28.8691
rhand -7.23555 16.9547
rfingers 7.12502
rthumb 18.6443 -12.1719
lclavicle 1.24831e-014 6.85807e-015
lhumerus -58.3514 -25.9627 100.226
lradius 100.113
lwrist 24.5451
lhand -5.32553 9.1896
lfingers 7.12502
lthumb 20.4806 38.1294
rfemur -11.5433 8.36574 28.2725
rtibia 35.8255
rfoot -19.7449 2.20623
rtoes 21.6567
lfemur -14.0585 -15.2275 -10.9402
ltibia 37.579
lfoot -16.5644 -14.8472
ltoes -18.1852
1130
root -37.2251 16.6072 -4.7973 1080.1 -183.087 -1079.6
lowerback 0.316927 0.812839 -0.0297002
upperback -0.651397 1.0948 0.59334
thorax -0.856192 0.552452 0.612005
lowerneck -9.06438 -7.12387 -4.5395
upperneck 33.7989 -8.64665 8.51381
head 13.5203 -1.94836 3.26715
rclavicle 1.46728e-014 3.97569e-015
rhumerus -45.8006 41.8852 -100.573
rradius 119.366
rwrist -28.9269
rhand -7.21745 16.9139
rfingers 7.12502
rthumb 18.6617 -12.2109
lclavicle 1.46728e-014 3.97569e-015
lhumerus -58.1053 -25.7523 99.4303
lradius 100.35
lwrist 24.6669
lhand -5.15302 9.22245
lfingers 7.12502
lthumb 20.6464 38.1443
rfemur -11.6303 9.05798 27.9569
rtibia 35.7605
rfoot -19.216 3.58434
rtoes 21.5428
lfemur -13.8786 -15.3211 -10.9663
ltibia 36.963
lfoot -15.8028 -16.3986
ltoes -15.4024
1131
root -37.2753 16.6173 -4.80447 1080.22 -185.342 -1079.61
lowerback 0.259769 0.791652 -0.139871
upperback -0.635501 1.06453 0.560746
thorax -0.80893 0.537483 0.641719
lowerneck -8.78822 -7.29305 -4.8568
upperneck 33.5463 -8.94184 8.48105
head 13.3908 -2.18936 3.24751
rclavicle -1.59323e-014 3.37934e-015
rhumerus -45.743 42.0073 -100.356
rradius 119.319
rwrist -28.9974
rhand -7.20648 16.8761
rfingers 7.12502
rthumb 18.6722 -12.2477
lclavicle -1.59323e-014 3.37934e-015
lhumerus -57.8564 -25.4597 98.5476
lradius 100.604
lwrist 24.6936
lhand -5.03388 9.26614
lfingers 7.12502
lthumb 20.7609 38.1756
rfemur -11.7409 9.74424 27.6266
rtibia 35.7156
rfoot -18.6859 4.98186
rtoes 21.6068
lfemur -13.6693 -15.346 -11.033
ltibia 36.3587
lfoot -14.9078 -17.8099
ltoes -12.5796
1132
root -37.3261 16.6272 -4.81239 1080.33 -187.606 -1079.64
lowerback 0.177624 0.744035 -0.229141
upperback -0.615379 0.999202 0.512639
thorax -0.742146 0.504708 0.644518
lowerneck -8.48288 -7.43164 -5.18712
upperneck 33.2722 -9.19255 8.46874
head 13.2456 -2.41056 3.24609
rclavicle -2.82367e-014 2.88238e-015
rhumerus -45.6748 42.1781 -100.175
rradius 119.266
rwrist -29.065
rhand -7.19272 16.8278
rfingers 7.12502
rthumb 18.6855 -12.2947
lclavicle -2.82367e-014 2.88238e-015
lhumerus -57.5968 -25.0896 97.5835
lradius 100.864
lwrist 24.6345
lhand -4.92123 9.29802
lfingers 7.12502
lthumb 20.8691 38.1956
rfemur -11.8726 10.4223 27.2778
rtibia 35.6885
rfoot -18.1687 6.35361
rtoes 21.6476
lfemur -13.4284 -15.3081 -11.1507
ltibia 35.7637
lfoot -13.8658 -19.0973
ltoes -9.76512
